<?xml version="1.0" encoding="utf-8"?>
<!-- Generator: Adobe Illustrator 24.0.0, SVG Export Plug-In . SVG Version: 6.00 Build 0)  -->
<svg version="1.1" id="Layer_1" xmlns="http://www.w3.org/2000/svg" xmlns:xlink="http://www.w3.org/1999/xlink" x="0px" y="0px"
	 viewBox="0 0 60 60" style="enable-background:new 0 0 60 60;" xml:space="preserve">
<style type="text/css">
	.st0{fill:#131F35;}
	.st1{fill:#99C93E;}
</style>
<path class="st0" d="M52.52,39.14H7.24c-0.79,0-1.44-0.65-1.44-1.45V10.31c0-2.38,1.92-4.32,4.28-4.32h31.75
	c0.4,0,0.73,0.33,0.73,0.73s-0.33,0.73-0.73,0.73H10.08c-1.55,0-2.82,1.28-2.82,2.86V37.7l45.25-0.02l-0.03-27.36
	c0-1.58-1.26-2.86-2.82-2.86h-3.29c-0.4,0-0.73-0.33-0.73-0.73s0.33-0.73,0.73-0.73h3.29c2.36,0,4.28,1.94,4.28,4.32V37.7
	C53.95,38.5,53.31,39.14,52.52,39.14z"/>
<path class="st0" d="M57.86,52.07H2.49c-0.76,0-1.45-0.39-1.84-1.05c-0.39-0.66-0.4-1.45-0.03-2.12L6.6,38.06
	c0.13-0.23,0.37-0.38,0.64-0.38h45.28c0.26,0,0.49,0.13,0.63,0.35l6.54,10.79c0.4,0.67,0.42,1.47,0.03,2.16
	C59.34,51.66,58.64,52.07,57.86,52.07z M7.67,39.14L1.9,49.61c-0.17,0.3-0.05,0.57,0.01,0.66c0.06,0.1,0.23,0.33,0.58,0.33h55.37
	c0.35,0,0.53-0.24,0.58-0.34c0.06-0.1,0.17-0.37-0.01-0.68L52.1,39.14H7.67z"/>
<path class="st0" d="M47.61,43.73H28.35c-0.4,0-0.73-0.33-0.73-0.73s0.33-0.73,0.73-0.73h19.25c0.4,0,0.73,0.33,0.73,0.73
	S48.01,43.73,47.61,43.73z"/>
<path class="st0" d="M15.28,43.73h-3.25c-0.4,0-0.73-0.33-0.73-0.73s0.33-0.73,0.73-0.73h3.25c0.4,0,0.73,0.33,0.73,0.73
	S15.68,43.73,15.28,43.73z"/>
<path class="st0" d="M24.06,43.73h-3.25c-0.4,0-0.73-0.33-0.73-0.73s0.33-0.73,0.73-0.73h3.25c0.4,0,0.73,0.33,0.73,0.73
	S24.47,43.73,24.06,43.73z"/>
<path class="st0" d="M35.98,47.71H7.95c-0.4,0-0.73-0.33-0.73-0.73s0.33-0.73,0.73-0.73h28.03c0.4,0,0.73,0.33,0.73,0.73
	S36.39,47.71,35.98,47.71z"/>
<path class="st0" d="M43.72,47.71h-3.19c-0.4,0-0.73-0.33-0.73-0.73s0.33-0.73,0.73-0.73h3.19c0.4,0,0.73,0.33,0.73,0.73
	S44.12,47.71,43.72,47.71z"/>
<path class="st0" d="M52.01,47.71h-3.16c-0.4,0-0.73-0.33-0.73-0.73s0.33-0.73,0.73-0.73h3.16c0.4,0,0.73,0.33,0.73,0.73
	S52.41,47.71,52.01,47.71z"/>
<rect x="28.35" y="10.54" class="st1" width="20.5" height="23.54"/>
<rect x="0" y="52.07" class="st1" width="59.98" height="1.82"/>
<rect x="19.43" y="11.22" class="st1" width="2.76" height="23.12"/>
<path class="st0" d="M25.98,35.69h-7.39c-0.4,0-0.73-0.33-0.73-0.73s0.33-0.73,0.73-0.73h7.39c0.4,0,0.73,0.33,0.73,0.73
	S26.39,35.69,25.98,35.69z"/>
<path class="st0" d="M49.18,35.69H29.07c-0.4,0-0.73-0.33-0.73-0.73s0.33-0.73,0.73-0.73h19.38V11.27h-36.7v22.95h3.66
	c0.4,0,0.73,0.33,0.73,0.73s-0.33,0.73-0.73,0.73h-4.4c-0.4,0-0.73-0.33-0.73-0.73V10.54c0-0.4,0.33-0.73,0.73-0.73h38.16
	c0.4,0,0.73,0.33,0.73,0.73v24.41C49.91,35.36,49.58,35.69,49.18,35.69z"/>
</svg>
